<svg xmlns="http://www.w3.org/2000/svg" width="27.984" height="27.276" viewBox="0 0 27.984 27.276">
  <g id="icons8-github-filled" transform="translate(-1830 -942.56)">
    <path class="svg_social" id="icons8-github-filled-2" data-name="icons8-github-filled" class="cls-1" d="M11.606,29.276a1.216,1.216,0,0,0,.735-1.117V24.874a3.133,3.133,0,0,1,.025-.371l-.025.006h-2.19a2.191,2.191,0,0,1-2.068-1.1c-.426-.791-.608-2.129-1.7-2.859-.183-.122-.061-.3.3-.3a3.332,3.332,0,0,1,1.643,1.217A2.57,2.57,0,0,0,10.4,22.684a6.6,6.6,0,0,0,2.812-.338,2.9,2.9,0,0,1,2.177-1.487v-.015c-3.448-.111-5.651-1.257-6.677-3.027a36.715,36.715,0,0,0-5.279.43q-.053-.3-.092-.6a37.267,37.267,0,0,1,5.077-.434,4.966,4.966,0,0,1-.177-.516,39.314,39.314,0,0,0-4.981.059c-.012-.2-.029-.4-.031-.608A39.859,39.859,0,0,1,8.1,16.08a5.981,5.981,0,0,1-.079-.939A5.238,5.238,0,0,1,9.057,12.1c-.3-1.034-.73-3.224.122-4.015a5.067,5.067,0,0,1,3.346,1.278,9.016,9.016,0,0,1,3.467-.67,8.5,8.5,0,0,1,3.407.669,5.067,5.067,0,0,1,3.346-1.278c.913.852.426,3.042.122,4.015a4.668,4.668,0,0,1,.973,3.042,6.068,6.068,0,0,1-.067.857,40.187,40.187,0,0,1,4.991.062c0,.205-.02.405-.031.608a39.415,39.415,0,0,0-5.085-.054,5.032,5.032,0,0,1-.2.6,37.812,37.812,0,0,1,5.2.419q-.039.3-.092.6a37.075,37.075,0,0,0-5.4-.415c-1.013,1.751-3.176,2.893-6.556,3.026v.019c1.582,0,3.042,2.373,3.042,4.015v3.285a1.216,1.216,0,0,0,.735,1.117,13.992,13.992,0,1,0-8.771,0Z" transform="translate(1828 940.56)"/>
  </g>
</svg>
