<svg xmlns="http://www.w3.org/2000/svg" width="26.984" height="26.984" viewBox="0 0 26.984 26.984">
  <g id="icons8-linkedin-filled" transform="translate(-1831 -982.016)">
    <path class="svg_social" id="icons8-linkedin-filled-2" data-name="icons8-linkedin-filled" class="cls-1" d="M27.772,4H7.212A3.214,3.214,0,0,0,4,7.212V27.772a3.214,3.214,0,0,0,3.212,3.212H27.772a3.214,3.214,0,0,0,3.212-3.212V7.212A3.214,3.214,0,0,0,27.772,4ZM12.352,14.28V26.487H8.5V14.28ZM8.5,10.727A1.712,1.712,0,0,1,10.425,9.14a1.738,1.738,0,0,1,1.927,1.587,1.71,1.71,0,0,1-1.927,1.625A1.739,1.739,0,0,1,8.5,10.727Zm17.989,15.76H22.632V20.062a2.31,2.31,0,0,0-2.249-2.6h-.051c-1.555,0-2.2,1.324-2.2,2.6v6.425H14.28V14.28h3.855v1.645a4.812,4.812,0,0,1,3.733-1.645c2.551,0,4.619,1.754,4.619,5.307Z" transform="translate(1827 978.016)"/>
  </g>
</svg>
