<svg xmlns="http://www.w3.org/2000/svg" width="33.881" height="33.877" viewBox="0 0 33.881 33.877">
  <g id="_ionicons_svg_ios-send" transform="translate(-1826 -861.046)">
    <path class="svg_social" id="_ionicons_svg_ios-send-2" data-name="_ionicons_svg_ios-send" class="cls-1" d="M96.849,64.116,64.456,78.234a.742.742,0,0,0,.026,1.35l8.762,4.95a1.413,1.413,0,0,0,1.615-.159L92.137,69.481c.115-.1.388-.282.494-.176s-.062.379-.159.494L77.524,86.635a1.408,1.408,0,0,0-.141,1.685l5.727,9.186a.745.745,0,0,0,1.341-.018L97.846,65.1a.743.743,0,0,0-1-.979Z" transform="translate(1761.964 797.006)"/>
  </g>
</svg>
