<svg xmlns="http://www.w3.org/2000/svg" width="64.67" height="55.172" viewBox="0 0 64.67 55.172">
  <path id="cloud-share" class="cls-1" d="M42.417,41.786a6.469,6.469,0,1,0-6.469-6.469L29.8,38.131A6.469,6.469,0,1,0,26.244,50a6.081,6.081,0,0,0,2.976-.776l6.793,3.235A6.469,6.469,0,1,0,38.6,46.508L32.94,43.92l6.178-2.846A6.469,6.469,0,0,0,42.417,41.786ZM55.1,16.621a22.642,22.642,0,0,0-43.214,6.113,12.938,12.938,0,0,0-1.229,24.777,3.655,3.655,0,0,0,1.035.162A3.276,3.276,0,0,0,12.724,41.2a6.354,6.354,0,0,1,2.2-12.356,3.235,3.235,0,0,0,3.235-3.235A16.173,16.173,0,0,1,49.63,20.405a3.235,3.235,0,0,0,2.523,2.167A9.7,9.7,0,0,1,55.388,40.46a3.246,3.246,0,0,0,3.235,5.628A16.152,16.152,0,0,0,55.1,16.621Z" transform="translate(-2.007 -3.013)"/>
</svg>
