<svg xmlns="http://www.w3.org/2000/svg" width="64.234" height="47.849" viewBox="0 0 64.234 47.849">
  <path id="code" class="services__icon" d="M26.944,7.173a3.31,3.31,0,0,0-5.064,0L4.049,27.09a4.319,4.319,0,0,0,0,5.657L21.88,52.665a3.31,3.31,0,0,0,5.064,0,4.319,4.319,0,0,0,0-5.657L11.61,29.919,26.944,12.829a4.319,4.319,0,0,0,0-5.657ZM66.173,27.09,48.342,7.173a3.322,3.322,0,0,0-5.064,0,4.338,4.338,0,0,0,0,5.657L58.613,29.919,43.278,47.008a4.319,4.319,0,0,0,0,5.657,3.31,3.31,0,0,0,5.064,0L66.173,32.747a4.319,4.319,0,0,0,0-5.657Z" transform="translate(-2.994 -5.994)"/>
</svg>
