<svg xmlns="http://www.w3.org/2000/svg" width="49.618" height="47.509" viewBox="0 0 49.618 47.509">
  <path id="pen" class="services__icon" d="M51.618,14.446A2.324,2.324,0,0,0,50.9,12.76L40.379,2.689a2.6,2.6,0,0,0-3.523,0L29.836,9.411h0L2.719,35.373A2.324,2.324,0,0,0,2,37.059V47.13a2.43,2.43,0,0,0,2.481,2.375H15a2.543,2.543,0,0,0,1.885-.689L43.853,22.855h0l7.046-6.6a2.821,2.821,0,0,0,.546-.784,2.275,2.275,0,0,0,0-.57,1.592,1.592,0,0,0,0-.333ZM13.983,44.755H6.962V38.033L31.6,14.446l7.021,6.722ZM42.116,17.819,35.1,11.1l3.523-3.349,7,6.7Z" transform="translate(-2 -2)"/>
</svg>
